<?xml version="1.0" encoding="UTF-8"?>
<svg id="b" data-name="Layer_2" xmlns="http://www.w3.org/2000/svg" viewBox="0 0 369.01 375.85">
  <defs>
    <style>
      .d {
        fill: #eae4dc;
      }
    </style>
  </defs>
  <g id="c" data-name="Layer_1">
    <g>
      <g>
        <path class="d" d="M362.43,155.76l-1.02-4.83c-2.34-11.11-5.78-22.01-10.21-32.42-9.72-22.85-23.89-43.06-42.12-60.07l-2.37-2.2-24.23,16.96c-26.4-21.7-59.63-33.61-93.92-33.61-67.66,0-126.63,45.72-143.4,111.18-3.07,11.96-4.63,24.35-4.63,36.84v.02c0,10.76,1.16,21.45,3.44,31.85H14.69l1.02,4.83c2.34,11.11,5.78,22.01,10.21,32.42,9.72,22.85,23.89,43.06,42.12,60.07l2.37,2.2,24.23-16.96c26.4,21.7,59.63,33.61,93.92,33.61,67.66,0,126.63-45.72,143.4-111.18,3.07-11.96,4.63-24.35,4.63-36.84v-.02c0-10.76-1.16-21.45-3.44-31.85h29.28ZM328.59,187.63c0,11.82-1.47,23.54-4.37,34.86-15.87,61.92-71.66,105.16-135.66,105.16-7.92,0-15.79-.68-23.51-2h-.03s-.05-.01-.08-.01c-.71-.12-1.42-.25-2.12-.38-1.44-.27-2.88-.56-4.31-.88-22.42-4.92-43.42-15.3-61.04-30.42l-2.36-2.02-23.95,16.78c-16.29-15.77-29.02-34.3-37.88-55.13-3.58-8.41-6.48-17.18-8.65-26.11h29.56l-1.29-4.99c-2.48-9.69-3.92-19.68-4.27-29.77v-.08c-.07-1.67-.1-3.34-.1-5.01v-.02c0-11.82,1.47-23.54,4.37-34.86,15.87-61.92,71.66-105.16,135.66-105.16,7.92,0,15.79.68,23.51,2h.03s.05.01.08.01c.71.12,1.42.25,2.12.38,1.44.27,2.88.56,4.31.88,22.42,4.92,43.42,15.3,61.04,30.42l2.36,2.02,23.95-16.78c16.29,15.77,29.02,34.3,37.88,55.13,3.58,8.41,6.48,17.18,8.65,26.11h-29.56l1.29,4.99c2.48,9.69,3.92,19.68,4.27,29.77v.08c.07,1.67.1,3.34.1,5.01v.02Z"/>
        <g>
          <path class="d" d="M31.97,208.47l-11.08.44-.32-8.18c3.69-.15,4.16-3.86,4.18-5.71-.06-1.54-.5-3.72-2.35-3.65-3.43.14-1.31,16.96-12.52,17.4-6.51.26-9.7-5.78-9.87-10.09-.15-3.69.89-7.48,4.12-9.37l-3.71-.29-.3-7.56,11.03-.44.31,7.96c-3.25.13-5,2.75-4.88,5.83.05,1.27.91,3,2.45,2.94,4.53-.18,2.78-17.55,13.12-17.96,6.86-.27,9.57,6.05,9.78,11.28.18,4.44-1.77,7.6-3.68,9.35l3.4.35.3,7.69Z"/>
          <path class="d" d="M1.78,162.46l2.74-13.63,5.69,1.14-.46,2.29,18.72,3.76,1.12-5.56-5.48-1.1,1.46-7.25,11.22,2.25-4.85,24.16-5.74-1.15.48-2.37-18.72-3.76-.48,2.37-5.69-1.14Z"/>
          <path class="d" d="M12.27,121.61l5.65-13.47,5.36,2.25-1.06,2.52,17.61,7.39,1.06-2.52,5.4,2.27-5.65,13.47-5.4-2.27,1.07-2.56-17.61-7.39-1.07,2.56-5.36-2.25Z"/>
          <path class="d" d="M62.8,83.25c1.01,4.34.79,9.75-2.49,14.49-5.31,7.67-13.76,9.37-21.83,3.78-8.32-5.76-8.98-15.47-5.7-20.21,2.5-3.62,5.66-3.84,6.32-3.87l-1.45-2.23,3.93-5.68,10.27,7.11-4.48,6.48c-2.43-1.52-5.43-1.89-7.21.68-1.8,2.6.24,6.53,4.18,9.26,3.58,2.48,8.08,2.86,10.46-.57,2.1-3.04.57-7.63.44-8.21l7.56-1.03Z"/>
          <path class="d" d="M54,55.59l19.87-17.59,6.45,7.28-5.7,5.05-2.6-2.93-5.27,4.67,4.03,4.55,6.26-5.54,3.88,4.38-6.26,5.54,4.76,5.37,5.27-4.67-2.71-3.06,5.7-5.05,6.59,7.45-19.86,17.59-3.88-4.38,2.08-1.84-12.66-14.3-2.08,1.84-3.85-4.35Z"/>
          <path class="d" d="M99.96,34.96c2.78-1.61,5.77-.15,6.9,1.79,1.33,2.28.87,4.99-1.99,6.65-2.51,1.46-5.51.41-6.69-1.61-1.13-1.94-1-5.22,1.78-6.83Z"/>
          <path class="d" d="M125.36,42.8l-3.48-10.53,7.77-2.57c1.16,3.51,4.86,2.93,6.64,2.44,1.46-.48,3.44-1.51,2.86-3.26-1.08-3.26-16.67,3.42-20.19-7.23-2.04-6.18,2.88-10.92,6.97-12.27,3.51-1.16,7.43-1.21,10.14,1.38l-.74-3.65,7.19-2.38,3.47,10.49-7.56,2.5c-1.02-3.09-4.03-4.05-6.95-3.08-1.21.4-2.63,1.71-2.15,3.17,1.42,4.3,17.64-2.17,20.88,7.65,2.15,6.52-3.17,10.87-8.14,12.52-4.22,1.4-7.79.4-10-.96l.6,3.37-7.31,2.42Z"/>
          <path class="d" d="M161.28,1.12L175.14.03l.46,5.79-2.33.18,1.5,19.04,5.66-.45-.44-5.57,7.37-.58.9,11.41-24.57,1.94-.46-5.83,2.41-.19-1.5-19.04-2.41.19-.46-5.79Z"/>
          <path class="d" d="M203.36,0l14.51,1.7-.67,5.77-2.71-.32-2.22,18.97,2.71.32-.68,5.81-14.51-1.7.68-5.81,2.75.32,2.22-18.97-2.75-.32.67-5.77Z"/>
          <path class="d" d="M254.25,37.91c-3.89,2.17-9.15,3.46-14.62,1.62-8.84-2.98-12.81-10.63-9.67-19.93,3.23-9.59,12.39-12.92,17.85-11.07,4.17,1.41,5.26,4.37,5.47,5l1.75-2.01,6.55,2.21-3.99,11.84-7.46-2.52c.79-2.75.31-5.75-2.65-6.74-3-1.01-6.21,2.04-7.75,6.58-1.39,4.13-.52,8.56,3.45,9.89,3.5,1.18,7.49-1.56,8.01-1.85l3.08,6.98Z"/>
          <path class="d" d="M278.39,21.84l22.37,14.27-5.23,8.2-6.42-4.09,2.11-3.3-5.94-3.79-3.27,5.12,7.05,4.5-3.15,4.93-7.05-4.5-3.86,6.05,5.93,3.79,2.2-3.45,6.42,4.09-5.35,8.38-22.37-14.27,3.15-4.93,2.34,1.49,10.27-16.1-2.34-1.49,3.12-4.9Z"/>
        </g>
        <g>
          <path class="d" d="M101.12,327.7l11.52,6.58-2.41,4.22-3.31-1.89.97-1.7-3.06-1.75-1.51,2.64,3.63,2.07-1.45,2.54-3.63-2.07-1.78,3.11,3.06,1.75,1.01-1.78,3.3,1.89-2.46,4.32-11.52-6.58,1.45-2.54,1.2.69,4.73-8.29-1.2-.69,1.44-2.52Z"/>
          <path class="d" d="M112.36,351.29l2.14-5.11,3.77,1.58c-.71,1.71.87,2.7,1.71,3.1.71.3,1.79.56,2.15-.29.66-1.58-7.41-4.17-5.25-9.35,1.25-3,4.67-3.18,6.65-2.34,1.71.71,3.2,1.98,3.38,3.84l.92-1.62,3.49,1.46-2.13,5.09-3.67-1.54c.63-1.5-.19-2.85-1.61-3.44-.59-.25-1.55-.22-1.85.49-.87,2.09,7.37,4.96,5.37,9.73-1.32,3.17-4.76,3.06-7.18,2.05-2.05-.86-3.07-2.4-3.46-3.64l-.88,1.47-3.55-1.48Z"/>
          <path class="d" d="M151.68,348.63l-1.52,5.51-3.12-.86.75-2.71-1.78-.49-2.54,9.21,1.76.49-.78,2.82-7.89-2.18.78-2.82,1.74.48,2.54-9.21-1.82-.5-.75,2.71-3.12-.86,1.52-5.51,14.23,3.93Z"/>
          <path class="d" d="M155.42,365.09l.42-2.9,1.35.19,1.36-9.45-1.35-.19.41-2.87,6.64.95c5.27.76,7.81,4.43,7.21,8.59-.71,4.96-4.13,7.38-9.48,6.62l-6.55-.94ZM163.84,353.7l-.83-.12-1.36,9.45.83.12c2.31.29,3.58-1.73,3.97-4.45.33-2.33-.31-4.67-2.62-5Z"/>
          <path class="d" d="M183.08,357.61c2.19.07,3.39,2,3.34,3.53-.06,1.8-1.3,3.2-3.55,3.13-1.98-.06-3.34-1.76-3.29-3.34.05-1.53,1.31-3.38,3.5-3.31Z"/>
          <path class="d" d="M199.85,375.85l-.76-5.67,2.53-.34-2.57-19.19-2.53.34-.75-5.62,16.27-2.18c7.24-.97,11.05,1.27,11.68,6.03.49,3.66-.27,5.58-3.37,7.33,3.26.45,6.18,2.41,6.75,6.64.82,6.15-2.26,9.31-10.67,10.44l-16.57,2.22ZM208.1,349.57l.88,6.54,2.66-.36c2.31-.31,2.8-1.66,2.52-3.76-.27-2.01-1.65-3.02-3.3-2.8l-2.75.37ZM214.14,368.16c1.83-.25,3.34-1.87,3.03-4.22-.3-2.22-1.78-3.67-4.18-3.35l-3.36.45,1.02,7.59,3.49-.47Z"/>
          <path class="d" d="M277.55,354.23l-16.26,6.85-2.24-5.31,3.85-1.62-2.01-2.4-8.31,3.5.31,3.12,3.16-1.33,2.24,5.31-12.9,5.43-2.24-5.31,2.76-1.16-2.02-20.11-1.66.7-2.2-5.23,15.57-6.56,16.88,20.01,2.84-1.2,2.24,5.31ZM252.03,349.75l5.31-2.24-6.36-7.63,1.05,9.87Z"/>
          <path class="d" d="M293.09,344.58l-3.52-4.51,2.01-1.57-11.91-15.27-2.01,1.57-3.49-4.48,12.94-10.1c5.76-4.49,10.18-4.48,13.13-.7,2.27,2.92,2.59,4.96.79,8.03,3.04-1.25,6.56-1.04,9.18,2.33,3.82,4.89,2.75,9.18-3.94,14.41l-13.19,10.29ZM286.94,317.73l4.06,5.21,2.12-1.65c1.84-1.43,1.57-2.85.28-4.51-1.25-1.6-2.95-1.77-4.27-.75l-2.19,1.71ZM301.55,330.73c1.46-1.14,1.94-3.3.48-5.18-1.38-1.77-3.39-2.27-5.3-.78l-2.67,2.08,4.71,6.04,2.78-2.17Z"/>
          <path class="d" d="M324.3,291.9c-.58-.68-1.44-2.58-1.97-3.62l-2-4.65-1.49,1.9-4.43-3.48,7.31-9.31,4.43,3.48-1.47,1.87,6.22,15.23,4.01,3.15,1.52-1.94,4.5,3.53-8.7,11.07-4.5-3.53,1.55-1.97-4.08-3.21-16.45-2.06-1.33,1.7-4.43-3.48,9.29-11.84,4.43,3.48-1.41,1.8,5.24.87c.82.31,2.95.8,3.65,1.13l.11-.14Z"/>
          <path class="d" d="M339.58,265.93c1.01-1.94,3.27-2.19,4.62-1.49,1.6.83,2.32,2.56,1.29,4.56-.91,1.76-3.03,2.25-4.44,1.52-1.36-.71-2.48-2.64-1.47-4.58Z"/>
          <path class="d" d="M343.2,252.29c-1.12-2.07-1.3-4.26-.52-6.31,1.04-2.74,3.58-4.24,6.36-3.19,2.37.9,2.77,2.32,3.36,5.04.26,1.23.94,3.34,1.59,4.13l1.37-3.62-1.65-.62,1.31-3.46,4.38,1.66-4.21,11.11-2.98-1.13c-1.42-1.83-1.81-2.62-2.36-4.33-.74-1.95-.78-4.46-2.06-4.94-1.05-.4-1.65.27-2.01,1.21-.42,1.11.18,2.26.6,3.12l-3.19,1.33Z"/>
          <path class="d" d="M354.27,236.46c-4.52-1.15-7.02-4.42-6.12-7.96,1.07-4.18,4.65-5.33,9.36-4.13,4.73,1.21,7.08,4.1,6.1,7.96-.91,3.56-4.1,5.47-9.34,4.13ZM356.42,228.65c-2.54-.65-4.58-.3-4.84.74-.22.78,1.17,2.18,3.77,2.84,2.75.7,4.74.1,4.96-.76.25-.98-1.29-2.17-3.89-2.83Z"/>
          <path class="d" d="M353.65,216.52c-1.55-1.77-2.22-3.86-1.92-6.04.4-2.9,2.55-4.93,5.49-4.52,2.51.35,3.21,1.64,4.4,4.16.53,1.14,1.67,3.05,2.47,3.67l.53-3.83-1.74-.24.51-3.66,4.64.64-1.63,11.77-3.16-.44c-1.79-1.47-2.34-2.15-3.26-3.7-1.16-1.74-1.75-4.17-3.1-4.36-1.11-.15-1.55.63-1.69,1.63-.16,1.18.68,2.16,1.28,2.91l-2.81,2.01Z"/>
          <path class="d" d="M361.2,198.73l-7.72-6.55.13-4.55,8.66.24.03-1.17,2.38.07-.03,1.17,1.43.04.03-1.19,2.9.08-.2,7.12-2.9-.08.04-1.38-1.43-.04-.18,6.33-3.14-.09ZM362.15,192.42l-4.07-.11,3.98,3.37.09-3.25Z"/>
        </g>
        <path class="d" d="M319.26,187.74c1.06,110.47-133.06,171.83-216.1,98.78l84.15-58.92h-123.01C25.01,102.46,174.4,3.59,274.24,88.97l-84.15,58.92h123.01c4.03,12.85,6.2,26.32,6.16,39.85Z"/>
      </g>
      <path class="d" d="M94.71,234.31h25c0,6.91-5.6,12.5-12.5,12.5-6.9,0-12.5-5.59-12.5-12.5Z"/>
      <path class="d" d="M52.69,277.58c-.17,0-.35-.02-.52-.05-1.63-.29-2.72-1.84-2.44-3.47,4.58-26.05,11.18-38.93,20.77-40.55,8.6-1.46,15.61,6.65,22.38,14.49,6.34,7.33,12.89,14.92,19.73,13.86,4.58-.71,5.86-3.8,7.91-9.66,2.29-6.57,5.15-14.75,16.71-17.07,7.47-1.5,12.46-1.13,17.64-.1,1.63.32,2.68,1.9,2.36,3.53-.32,1.62-1.9,2.68-3.53,2.36-4.48-.89-8.79-1.21-15.29.1-8.21,1.65-10.07,6.99-12.23,13.16-2.02,5.77-4.3,12.32-12.66,13.61-10.12,1.56-18.12-7.69-25.19-15.86-5.95-6.88-11.58-13.38-16.84-12.5-3.69.62-10.65,6.09-15.86,35.67-.26,1.46-1.52,2.48-2.95,2.48Z"/>
      <circle class="d" cx="78.33" cy="274.58" r="12.5"/>
      <g>
        <g>
          <path class="d" d="M282.36,140.86h-25c0-6.91,5.6-12.5,12.5-12.5s12.5,5.59,12.5,12.5Z"/>
          <path class="d" d="M324.38,97.59c.17,0,.35.02.52.05,1.63.29,2.72,1.84,2.44,3.47-4.58,26.05-11.18,38.93-20.77,40.55-8.6,1.46-15.61-6.65-22.38-14.49-6.34-7.33-12.89-14.92-19.73-13.86-4.58.71-5.86,3.8-7.91,9.66-2.29,6.57-5.15,14.75-16.71,17.07-7.47,1.5-12.46,1.13-17.64.1-1.63-.32-2.68-1.9-2.36-3.53.32-1.62,1.9-2.68,3.53-2.36,4.48.89,8.79,1.21,15.29-.1,8.21-1.65,10.07-6.99,12.23-13.16,2.02-5.77,4.3-12.32,12.66-13.61,10.12-1.56,18.12,7.69,25.19,15.86,5.95,6.88,11.58,13.38,16.84,12.5,3.69-.62,10.65-6.09,15.86-35.67.26-1.46,1.52-2.48,2.95-2.48Z"/>
        </g>
        <circle class="d" cx="298.74" cy="100.59" r="12.5"/>
      </g>
    </g>
  </g>
</svg>